<svg width="16" height="20" viewBox="0 0 16 20" fill="none" xmlns="http://www.w3.org/2000/svg">
<path d="M13.3637 10.6276C13.339 8.09423 15.3934 6.87915 15.4852 6.81776C14.3306 5.09941 12.5318 4.86363 11.8916 4.8368C10.362 4.67866 8.90552 5.7539 8.12954 5.7539C7.35515 5.7539 6.15623 4.85997 4.88782 4.88274C3.21924 4.90794 1.68125 5.87057 0.822593 7.39095C-0.91029 10.4508 0.379288 14.9855 2.06784 17.4689C2.89335 18.6828 3.8778 20.0487 5.16938 19.9987C6.41423 19.9487 6.88389 19.1792 8.38873 19.1792C9.89357 19.1792 10.3161 19.9987 11.6328 19.9731C12.9715 19.9483 13.8202 18.7361 14.6389 17.5173C15.5866 16.1071 15.9768 14.7416 16 14.6725C15.9708 14.6587 13.3905 13.6525 13.3637 10.6276Z" fill="#111111"/>
<path d="M10.8897 3.1932C11.5746 2.34683 12.0387 1.17077 11.9125 0C10.9241 0.0406518 9.72754 0.668722 9.01785 1.51428C8.38205 2.26471 7.82612 3.45947 7.97509 4.6091C9.07776 4.69609 10.2024 4.03794 10.8897 3.1932Z" fill="#111111"/>
</svg>
