<svg width="7" height="7" viewBox="0 0 7 7" fill="none" xmlns="http://www.w3.org/2000/svg">
<path fill-rule="evenodd" clip-rule="evenodd" d="M6.84732 0.152677C6.64375 -0.0508923 6.3137 -0.0508924 6.11013 0.152677L3.50003 2.76278L0.889935 0.152676C0.686365 -0.0508929 0.356314 -0.0508929 0.152744 0.152676C-0.0508256 0.356246 -0.0508257 0.686297 0.152744 0.889866L3.13144 3.86856C3.33501 4.07213 3.66506 4.07213 3.86863 3.86856L6.84732 0.889867C7.05089 0.686298 7.05089 0.356246 6.84732 0.152677Z" fill="#A8A8A8"/>
<path fill-rule="evenodd" clip-rule="evenodd" d="M0.152677 6.84732C0.356246 7.05089 0.686298 7.05089 0.889867 6.84732L3.49997 4.23722L6.11006 6.84732C6.31363 7.05089 6.64369 7.05089 6.84726 6.84732C7.05083 6.64375 7.05083 6.3137 6.84726 6.11013L3.86856 3.13144C3.66499 2.92787 3.33494 2.92787 3.13137 3.13144L0.152677 6.11013C-0.0508923 6.3137 -0.0508924 6.64375 0.152677 6.84732Z" fill="#A8A8A8"/>
</svg>
