<svg width="20" height="20" viewBox="0 0 20 20" fill="none" xmlns="http://www.w3.org/2000/svg">
<path d="M20.0001 10.2299C20.0001 9.55016 19.9439 8.86673 19.8239 8.198H10.2017V12.0487H15.7119C15.4832 13.2907 14.7485 14.3893 13.6727 15.0874V17.586H16.9601C18.8906 15.8443 20.0001 13.2723 20.0001 10.2299Z" fill="#4285F4"/>
<path d="M10.2027 20C12.954 20 15.2743 19.1144 16.9649 17.5859L13.6775 15.0874C12.7629 15.6973 11.5821 16.0427 10.2064 16.0427C7.54502 16.0427 5.28845 14.2827 4.47878 11.9164H1.08643V14.4921C2.81821 17.8688 6.34551 20 10.2027 20Z" fill="#34A853"/>
<path d="M4.47378 11.9164C4.04646 10.6744 4.04646 9.32962 4.47378 8.08769V5.51196H1.08518C-0.361726 8.33754 -0.361726 11.6665 1.08518 14.4921L4.47378 11.9164Z" fill="#FBBC04"/>
<path d="M10.2027 3.95771C11.6571 3.93567 13.0627 4.47212 14.1161 5.45685L17.0286 2.60187C15.1844 0.904321 12.7366 -0.0289651 10.2027 0.000429732C6.34551 0.000429732 2.81821 2.13156 1.08643 5.51196L4.47503 8.08769C5.28095 5.71773 7.54127 3.95771 10.2027 3.95771Z" fill="#EA4335"/>
</svg>
