<svg width="53" height="53" viewBox="0 0 53 53" fill="none" xmlns="http://www.w3.org/2000/svg">
<path d="M26.1296 0C32.1748 7.20886e-08 38.033 2.0961 42.7061 5.93115C47.3791 9.7662 50.5778 15.1029 51.7571 21.032C52.9365 26.961 52.0236 33.1156 49.1739 38.447C46.3242 43.7784 41.714 47.9568 36.129 50.2702C30.5439 52.5836 24.3295 52.8889 18.5446 51.1341C12.7597 49.3792 7.76217 45.6729 4.40363 40.6464C1.04508 35.62 -0.466715 29.5846 0.125822 23.5685C0.718359 17.5523 3.37857 11.9278 7.65319 7.65318L13.9066 13.9065C11.0787 16.7344 9.31882 20.4553 8.92683 24.4353C8.53483 28.4152 9.53496 32.408 11.7568 35.7332C13.9786 39.0584 17.2847 41.5104 21.1117 42.6713C24.9387 43.8322 29.0499 43.6302 32.7447 42.0998C36.4395 40.5694 39.4893 37.8052 41.3745 34.2782C43.2597 30.7512 43.8637 26.6796 43.0835 22.7573C42.3033 18.8349 40.1872 15.3044 37.0957 12.7673C34.0043 10.2303 30.1288 8.84359 26.1296 8.84359L26.1296 0Z" fill="#3949F9"/>
<mask id="mask0_56_194" style="mask-type:alpha" maskUnits="userSpaceOnUse" x="0" y="0" width="53" height="53">
<path d="M26.1296 0C32.1748 7.20886e-08 38.033 2.0961 42.7061 5.93115C47.3791 9.7662 50.5778 15.1029 51.7571 21.032C52.9365 26.961 52.0236 33.1156 49.1739 38.447C46.3242 43.7784 41.714 47.9568 36.129 50.2702C30.5439 52.5836 24.3295 52.8889 18.5446 51.1341C12.7597 49.3792 7.76217 45.6729 4.40363 40.6464C1.04508 35.62 -0.466715 29.5846 0.125822 23.5685C0.718359 17.5523 3.37857 11.9278 7.65319 7.65318L13.9066 13.9065C11.0787 16.7344 9.31882 20.4553 8.92683 24.4353C8.53483 28.4152 9.53496 32.408 11.7568 35.7332C13.9786 39.0584 17.2847 41.5104 21.1117 42.6713C24.9387 43.8322 29.0499 43.6302 32.7447 42.0998C36.4395 40.5694 39.4893 37.8052 41.3745 34.2782C43.2597 30.7512 43.8637 26.6796 43.0835 22.7573C42.3033 18.8349 40.1872 15.3044 37.0957 12.7673C34.0043 10.2303 30.1288 8.84359 26.1296 8.84359L26.1296 0Z" fill="#3949F9"/>
</mask>
<g mask="url(#mask0_56_194)">
<g filter="url(#filter0_f_56_194)">
<circle cx="35.5" cy="1.5" r="30.5" fill="#34DCFF"/>
</g>
<g filter="url(#filter1_f_56_194)">
<path d="M32.2404 27.8254C28.2515 32.2883 23.0377 35.4787 17.2484 36.9994C11.4591 38.52 5.35034 38.3035 -0.316797 36.377C-5.98393 34.4504 -10.9589 30.8989 -14.6219 26.165C-18.285 21.431 -20.4741 15.7239 -20.9166 9.75461C-21.359 3.78533 -20.0353 -2.1822 -17.1103 -7.40449C-14.1852 -12.6268 -9.78825 -16.873 -4.4671 -19.614C0.854055 -22.3551 6.86413 -23.4698 12.8143 -22.8194C18.7645 -22.1689 24.3918 -19.7821 28.9951 -15.9561L9.5 7.5L32.2404 27.8254Z" fill="#1D089B"/>
</g>
</g>
<path d="M26.1296 10.4519C29.2304 10.4519 32.2615 11.3714 34.8397 13.0941C37.4179 14.8168 39.4274 17.2653 40.614 20.1301C41.8006 22.9948 42.1111 26.1471 41.5061 29.1883C40.9012 32.2294 39.408 35.023 37.2155 37.2155C35.0229 39.4081 32.2294 40.9013 29.1882 41.5062C26.147 42.1111 22.9947 41.8006 20.13 40.614C17.2652 39.4274 14.8167 37.418 13.094 34.8398C11.3713 32.2616 10.4518 29.2304 10.4518 26.1296L19.2643 26.1297C19.2643 27.4875 19.667 28.8148 20.4213 29.9438C21.1757 31.0728 22.2479 31.9527 23.5024 32.4724C24.7568 32.992 26.1372 33.1279 27.469 32.863C28.8007 32.5981 30.024 31.9443 30.9841 30.9842C31.9442 30.024 32.5981 28.8008 32.863 27.469C33.1279 26.1373 32.9919 24.7569 32.4723 23.5024C31.9527 22.248 31.0727 21.1758 29.9438 20.4214C28.8148 19.667 27.4874 19.2644 26.1296 19.2644L26.1296 10.4519Z" fill="url(#paint0_linear_56_194)"/>
<defs>
<filter id="filter0_f_56_194" x="-25" y="-59" width="121" height="121" filterUnits="userSpaceOnUse" color-interpolation-filters="sRGB">
<feFlood flood-opacity="0" result="BackgroundImageFix"/>
<feBlend mode="normal" in="SourceGraphic" in2="BackgroundImageFix" result="shape"/>
<feGaussianBlur stdDeviation="15" result="effect1_foregroundBlur_56_194"/>
</filter>
<filter id="filter1_f_56_194" x="-51" y="-53" width="113.24" height="121" filterUnits="userSpaceOnUse" color-interpolation-filters="sRGB">
<feFlood flood-opacity="0" result="BackgroundImageFix"/>
<feBlend mode="normal" in="SourceGraphic" in2="BackgroundImageFix" result="shape"/>
<feGaussianBlur stdDeviation="15" result="effect1_foregroundBlur_56_194"/>
</filter>
<linearGradient id="paint0_linear_56_194" x1="13.9998" y1="40.5" x2="41.9998" y2="10" gradientUnits="userSpaceOnUse">
<stop stop-color="#AC2C08"/>
<stop offset="0.852727" stop-color="#FFE600"/>
<stop offset="1" stop-color="#FFA4A4"/>
</linearGradient>
</defs>
</svg>
